<?xml version="1.0" standalone="no"?><!DOCTYPE svg PUBLIC "-//W3C//DTD SVG 1.1//EN" "http://www.w3.org/Graphics/SVG/1.1/DTD/svg11.dtd"><svg t="1703470280477" class="icon" viewBox="0 0 1024 1024" version="1.1" xmlns="http://www.w3.org/2000/svg" p-id="5395" xmlns:xlink="http://www.w3.org/1999/xlink" width="200" height="200"><path d="M257.04448 803.82976c0 46.90432 37.9904 84.88448 84.88448 84.88448h334.2592c49.80736 0 90.18368-40.37632 90.18368-90.18368V299.8016c0-2.92352-2.37056-5.29408-5.29408-5.29408H262.34368c-2.92352 0-5.29408 2.37056-5.29408 5.29408v504.02816z m145.97632-332.82048c-6.97856-7.97184-5.44256-21.91872 1.536-29.89056s18.28864-7.97184 25.2672 0l92.60032 105.82016v-0.0256l92.64128-105.76896c4.51584-5.15584 11.08992-7.168 17.25952-5.28384 6.16448 1.88928 10.9824 7.38816 12.63104 14.43328 1.64864 7.04512 0.91136 13.53216-3.59936 18.69312L552.8064 572.3136c-1.74592 1.9968-3.79904 4.97664-2.048 6.97856l89.52832 102.35392c4.51072 5.15584 6.27712 12.672 4.62336 19.71712-1.65376 7.04512-4.41856 13.568-10.58304 15.45728-6.16448 1.88928-13.76768 1.408-18.2784-3.74784l-91.68896-103.82336c-2.10944-2.41152-3.29728-1.38752-5.41184 1.024l-88.6528 100.19328c-4.51584 5.15584-11.60192 7.168-17.77152 5.28384-6.16448-1.88928-10.9824-7.38816-12.63104-14.43328-1.64864-7.04512 0.11264-14.55616 4.62336-19.71712L494.08 579.29216c1.74592-1.9968-1.32096-4.97664-3.072-6.97856L403.0208 471.00928zM771.44064 196.07552H667.136c-7.3728 0-14.44352-3.03104-19.6608-8.4224l-24.74496-25.59488c-5.21216-5.39136-12.288-8.4224-19.6608-8.4224H420.93056c-7.3728 0-14.44352 3.03104-19.6608 8.4224l-24.7552 25.6c-5.21216 5.39136-12.28288 8.4224-19.6608 8.4224h-104.2944c-15.35488 0-27.8016 12.8768-27.8016 28.75904v10.98752c0 15.88224 12.44672 28.75904 27.8016 28.75904h518.88128c15.35488 0 27.8016-12.8768 27.8016-28.75904v-10.98752c0-15.89248-12.44672-28.76416-27.8016-28.76416z" p-id="5396" fill="#d81e06"></path></svg>